<svg xmlns="http://www.w3.org/2000/svg" width="24" height="24" fill="#ffffff" viewBox="0 0 24 24">
  <path d="M12 0C5.37 0 0 5.373 0 12c0 5.302 3.438 9.8 8.207 11.387.6.113.793-.258.793-.577v-2.234c-3.338.726-4.033-1.416-4.033-1.416-.546-1.387-1.333-1.757-1.333-1.757-1.089-.744.083-.729.083-.729 1.205.085 1.84 1.237 1.84 1.237 1.07 1.835 2.807 1.305 3.492.998.108-.775.418-1.305.76-1.605-2.665-.303-5.467-1.334-5.467-5.93 0-1.31.469-2.38 1.236-3.22-.124-.303-.535-1.524.117-3.176 0 0 1.008-.322 3.3 1.23a11.49 11.49 0 0 1 3-.404c1.02.005 2.05.138 3 .404 2.29-1.552 3.297-1.23 3.297-1.23.653 1.653.242 2.873.118 3.176.77.84 1.235 1.91 1.235 3.22 0 4.61-2.807 5.625-5.48 5.92.43.372.823 1.103.823 2.222v3.293c0 .322.192.694.8.576C20.565 21.796 24 17.298 24 12c0-6.627-5.373-12-12-12z"></path>
</svg>
