<?xml version="1.0" encoding="UTF-8"?>
<svg xmlns="http://www.w3.org/2000/svg" version="1.1" width="180" height="180" style="background-color:transparent;">
  <path d="M0 0 C59.4 0 118.8 0 180 0 C180 59.4 180 118.8 180 180 C120.6 180 61.2 180 0 180 C0 120.6 0 61.2 0 0 Z " fill="#FEFDFD" transform="translate(0,0)"/>
  <path d="M0 0 C6.24239886 4.62444635 9.48895153 10.73300257 12 18 C12 18.99 12 19.98 12 21 C12.61746094 20.95359375 13.23492187 20.9071875 13.87109375 20.859375 C21.68036695 20.5265597 27.27249278 21.84109558 33.3046875 26.953125 C38.39252786 32.13149633 40 35.75542146 40 43 C37.625 43.625 37.625 43.625 35 44 C33 42 33 42 31.625 38.625 C29.40463734 33.67188329 27.46371318 31.77328243 22.6875 29.25 C18.751252 27.91567864 16.12184476 27.55034421 12 28 C10.96875 28.515625 9.9375 29.03125 8.875 29.5625 C5.62453606 31.18773197 4.38592697 31.09544696 1 30 C0.8125 27.625 0.8125 27.625 1 25 C1.99 24.34 2.98 23.68 4 23 C3.72954251 16.50902018 1.4207993 12.70760731 -3 8 C-9.44366562 2.39188662 -15.33536129 0.53272175 -23.859375 0.6796875 C-30.89841106 1.39759914 -36.82856659 4.19557154 -42 9 C-43.85798276 11.9961769 -43.85798276 11.9961769 -45.3125 15.25 C-46.08013672 16.86648437 -46.08013672 16.86648437 -46.86328125 18.515625 C-47.23839844 19.33546875 -47.61351563 20.1553125 -48 21 C-47.06929687 21.13921875 -46.13859375 21.2784375 -45.1796875 21.421875 C-41.7387736 22.04749571 -39.70025841 22.77625778 -37 25 C-36.625 27.625 -36.625 27.625 -37 30 C-38 31 -38 31 -40.25 31.25 C-43 31 -43 31 -45.3125 29.5 C-48.92107552 27.48591134 -52.01012603 27.35219758 -56 28 C-61.23173926 29.62164612 -65.20350041 32.28713963 -68.15234375 36.9453125 C-70.06095997 41.57172784 -69.86087475 46.33635224 -68.3359375 51.0546875 C-66.06955889 55.64656764 -62.65845165 58.18260793 -58 60 C-54.6524943 60.5458579 -51.36691456 60.55808588 -47.98046875 60.5390625 C-47.0406868 60.55085541 -46.10090485 60.56264832 -45.13264465 60.57479858 C-42.15075852 60.60992282 -39.16957581 60.61921938 -36.1875 60.625 C-33.18778158 60.64133023 -30.18837587 60.66329315 -27.188797 60.69662476 C-25.32697135 60.71629733 -23.46500157 60.72558506 -21.60307312 60.72354126 C-20.76492569 60.73050018 -19.92677826 60.73745911 -19.06323242 60.74462891 C-17.95572884 60.74651718 -17.95572884 60.74651718 -16.82585144 60.7484436 C-15 61 -15 61 -13 63 C-13.375 65.625 -13.375 65.625 -14 68 C-20.11976497 68.07447293 -26.23926278 68.12875469 -32.359375 68.16479492 C-34.43884887 68.17982843 -36.51829131 68.20026074 -38.59765625 68.22631836 C-41.59643334 68.26294136 -44.59478911 68.27978111 -47.59375 68.29296875 C-48.97548401 68.31619453 -48.97548401 68.31619453 -50.38513184 68.33988953 C-57.20901232 68.34164601 -62.99936995 67.49327715 -68.42578125 62.984375 C-74.16060465 56.19282431 -77.6557214 50.59922278 -77.3515625 41.48828125 C-76.36837899 34.52952684 -71.88989077 27.94024607 -66.3359375 23.7421875 C-62.46756118 21.30528083 -59.52659836 20.55838065 -55 21 C-54.92523438 20.443125 -54.85046875 19.88625 -54.7734375 19.3125 C-53.21189695 10.2494411 -48.16726006 4.31977774 -41.1875 -1.45703125 C-28.08239306 -10.70081204 -13.03854005 -7.87351452 0 0 Z " fill="#C41E1E" transform="translate(105,34)"/>
  <path d="M0 0 C1.79244141 0.01740234 1.79244141 0.01740234 3.62109375 0.03515625 C5.41740234 0.04869141 5.41740234 0.04869141 7.25 0.0625 C8.17683594 0.07410156 9.10367188 0.08570312 10.05859375 0.09765625 C10.04699219 0.95230469 10.03539062 1.80695313 10.0234375 2.6875 C10.01441406 3.79222656 10.00539062 4.89695312 9.99609375 6.03515625 C9.98449219 7.13730469 9.97289062 8.23945313 9.9609375 9.375 C9.74596804 12.01213259 9.74596804 12.01213259 11.05859375 13.09765625 C11.24609375 16.03515625 11.24609375 16.03515625 11.05859375 19.09765625 C10.39859375 19.75765625 9.73859375 20.41765625 9.05859375 21.09765625 C4.50303819 20.54210069 4.50303819 20.54210069 3.05859375 19.09765625 C2.72859375 19.75765625 2.39859375 20.41765625 2.05859375 21.09765625 C1.06859375 21.09765625 0.07859375 21.09765625 -0.94140625 21.09765625 C-0.94140625 18.78765625 -0.94140625 16.47765625 -0.94140625 14.09765625 C-1.60140625 14.09765625 -2.26140625 14.09765625 -2.94140625 14.09765625 C-2.73515625 13.47890625 -2.52890625 12.86015625 -2.31640625 12.22265625 C-2.19265625 11.52140625 -2.06890625 10.82015625 -1.94140625 10.09765625 C-2.60140625 9.43765625 -3.26140625 8.77765625 -3.94140625 8.09765625 C-4.12890625 4.53515625 -4.12890625 4.53515625 -3.94140625 1.09765625 C-2.94140625 0.09765625 -2.94140625 0.09765625 0 0 Z " fill="#E9DDDD" transform="translate(140.94140625,122.90234375)"/>
  <path d="M0 0 C3 0.25 3 0.25 5 2.25 C5.30078125 4.5625 5.30078125 4.5625 5.3125 7.25 C5.32925781 8.136875 5.34601563 9.02375 5.36328125 9.9375 C5.24339844 10.700625 5.12351563 11.46375 5 12.25 C2 14.25 2 14.25 -0.5625 14 C-3 13.25 -3 13.25 -5 11.25 C-5.265625 9.15625 -5.265625 9.15625 -5.25 6.75 C-5.25515625 5.9559375 -5.2603125 5.161875 -5.265625 4.34375 C-4.80957894 0.74903399 -3.45860435 0.28821703 0 0 Z " fill="#555555" transform="translate(133,103.75)"/>
  <path d="M0 0 C0.99 0.103125 1.98 0.20625 3 0.3125 C5.47342266 4.02263399 5.38503486 5.92310262 5 10.3125 C3.8125 12.75 3.8125 12.75 2 14.3125 C-0.5625 14.75 -0.5625 14.75 -3 14.3125 C-5.08940868 11.17838698 -5.27364412 10.33799528 -5.25 6.75 C-5.25515625 5.96496094 -5.2603125 5.17992188 -5.265625 4.37109375 C-4.80562891 0.80612407 -3.41455706 0.35568303 0 0 Z " fill="#C82F2F" transform="translate(111,82.6875)"/>
  <path d="M0 0 C3 -0.375 3 -0.375 6 0 C8.46751239 3.70126859 8.30721156 5.62223532 8 10 C7 12.4375 7 12.4375 6 14 C3.6875 14.25 3.6875 14.25 1 14 C-1.78767132 11.59683507 -1.98892571 10.12624692 -2.3125 6.4375 C-2 3 -2 3 0 0 Z " fill="#C82D2D" transform="translate(142,83)"/>
  <path d="M0 0 C1.4540625 0.0309375 1.4540625 0.0309375 2.9375 0.0625 C4.1875 6.6875 4.1875 6.6875 1.9375 10.0625 C-2.9375 9.1875 -2.9375 9.1875 -4.0625 8.0625 C-4.1875 4.5625 -4.1875 4.5625 -4.0625 1.0625 C-3.0625 0.0625 -3.0625 0.0625 0 0 Z " fill="#959595" transform="translate(141.0625,122.9375)"/>
  <path d="M0 0 C0.78375 0.04125 1.5675 0.0825 2.375 0.125 C3.75625018 2.88750036 3.56579306 5.07231099 3.375 8.125 C2.715 8.785 2.055 9.445 1.375 10.125 C-1.25 9.75 -1.25 9.75 -3.625 9.125 C-4.25 5.75 -4.25 5.75 -4.625 2.125 C-2.625 0.125 -2.625 0.125 0 0 Z " fill="#E08888" transform="translate(98.625,122.875)"/>
  <path d="M0 0 C0 4.62 0 9.24 0 14 C-1.32 14 -2.64 14 -4 14 C-4.33 11.03 -4.66 8.06 -5 5 C-5.99 4.67 -6.98 4.34 -8 4 C-4.5 0 -4.5 0 0 0 Z " fill="#D04D4D" transform="translate(137,83)"/>
  <path d="M0 0 C1.32 0 2.64 0 4 0 C4 4.62 4 9.24 4 14 C2.68 14 1.36 14 0 14 C0 11.03 0 8.06 0 5 C-0.99 5 -1.98 5 -3 5 C-1.125 1.125 -1.125 1.125 0 0 Z " fill="#4C4C4C" transform="translate(121,104)"/>
  <path d="M0 0 C4.70588235 0.70588235 4.70588235 0.70588235 6 2 C6.1875 4.9375 6.1875 4.9375 6 8 C5.34 8.66 4.68 9.32 4 10 C1.375 9.625 1.375 9.625 -1 9 C-1.09765625 2.84765625 -1.09765625 2.84765625 -1 1 C-0.67 0.67 -0.34 0.34 0 0 Z " fill="#DE8383" transform="translate(146,134)"/>
  <path d="M0 0 C1.23556641 0.01740234 1.23556641 0.01740234 2.49609375 0.03515625 C3.32238281 0.04417969 4.14867188 0.05320313 5 0.0625 C5.63808594 0.07410156 6.27617188 0.08570313 6.93359375 0.09765625 C6.93359375 2.40765625 6.93359375 4.71765625 6.93359375 7.09765625 C6.27359375 7.09765625 5.61359375 7.09765625 4.93359375 7.09765625 C4.93359375 5.77765625 4.93359375 4.45765625 4.93359375 3.09765625 C4.27359375 3.09765625 3.61359375 3.09765625 2.93359375 3.09765625 C2.93359375 4.08765625 2.93359375 5.07765625 2.93359375 6.09765625 C1.27744718 6.47984392 -0.39097649 6.81160727 -2.06640625 7.09765625 C-3.06640625 6.09765625 -3.06640625 6.09765625 -3.19140625 3.59765625 C-3.01865637 0.14265862 -3.01865637 0.14265862 0 0 Z " fill="#D76666" transform="translate(117.06640625,145.90234375)"/>
  <path d="M0 0 C1.23556641 0.01740234 1.23556641 0.01740234 2.49609375 0.03515625 C3.32238281 0.04417969 4.14867188 0.05320313 5 0.0625 C5.63808594 0.07410156 6.27617188 0.08570313 6.93359375 0.09765625 C6.93359375 2.40765625 6.93359375 4.71765625 6.93359375 7.09765625 C6.27359375 7.09765625 5.61359375 7.09765625 4.93359375 7.09765625 C4.93359375 5.77765625 4.93359375 4.45765625 4.93359375 3.09765625 C4.27359375 3.09765625 3.61359375 3.09765625 2.93359375 3.09765625 C2.60359375 4.41765625 2.27359375 5.73765625 1.93359375 7.09765625 C0.28359375 6.76765625 -1.36640625 6.43765625 -3.06640625 6.09765625 C-3.10912725 4.4315372 -3.10704457 2.7638274 -3.06640625 1.09765625 C-2.06640625 0.09765625 -2.06640625 0.09765625 0 0 Z " fill="#787878" transform="translate(97.06640625,136.90234375)"/>
  <path d="M0 0 C0 4.62 0 9.24 0 14 C-0.99 14 -1.98 14 -3 14 C-3.33 11.03 -3.66 8.06 -4 5 C-4.99 4.67 -5.98 4.34 -7 4 C-3.375 0 -3.375 0 0 0 Z " fill="#C42020" transform="translate(102,83)"/>
  <path d="M0 0 C0 4.62 0 9.24 0 14 C-0.99 14 -1.98 14 -3 14 C-3.33 11.03 -3.66 8.06 -4 5 C-4.66 5 -5.32 5 -6 5 C-6 4.01 -6 3.02 -6 2 C-3 0 -3 0 0 0 Z " fill="#363636" transform="translate(102,104)"/>
  <path d="M0 0 C0.99 0 1.98 0 3 0 C3 4.62 3 9.24 3 14 C2.01 14 1.02 14 0 14 C-0.33 11.03 -0.66 8.06 -1 5 C-1.66 5 -2.32 5 -3 5 C-1.125 1.125 -1.125 1.125 0 0 Z " fill="#2B2B2B" transform="translate(110,104)"/>
  <path d="M0 0 C3.125 -0.1875 3.125 -0.1875 6 0 C7.2380014 3.57644848 6.74926071 6.33694766 6 10 C5.67 10 5.34 10 5 10 C4.67 7.69 4.34 5.38 4 3 C3.34 3 2.68 3 2 3 C1.34 5.31 0.68 7.62 0 10 C-0.66 10 -1.32 10 -2 10 C-2.25 3.375 -2.25 3.375 0 0 Z " fill="#C72A2A" transform="translate(142,83)"/>
  <path d="M0 0 C0.66 0 1.32 0 2 0 C2.33 3.3 2.66 6.6 3 10 C3.99 10.33 4.98 10.66 6 11 C6 11.66 6 12.32 6 13 C3.625 13.1875 3.625 13.1875 1 13 C-1.11295256 9.83057116 -1.25250929 9.00370047 -1.1875 5.375 C-1.17783203 4.18003906 -1.17783203 4.18003906 -1.16796875 2.9609375 C-1 1 -1 1 0 0 Z " fill="#C82B2B" transform="translate(107,84)"/>
  <path d="M0 0 C0.66 0 1.32 0 2 0 C2 2.31 2 4.62 2 7 C2.99 7 3.98 7 5 7 C5 5.02 5 3.04 5 1 C5.66 1 6.32 1 7 1 C7.125 3.875 7.125 3.875 7 7 C6.34 7.66 5.68 8.32 5 9 C2.375 8.625 2.375 8.625 0 8 C0 5.36 0 2.72 0 0 Z " fill="#CB3A3A" transform="translate(129,135)"/>
  <path d="M0 0 C1.32 0.33 2.64 0.66 4 1 C4 3.64 4 6.28 4 9 C2.34385343 9.38218767 0.67542976 9.71395102 -1 10 C-2 9 -2 9 -2.0625 5.4375 C-2.041875 4.303125 -2.02125 3.16875 -2 2 C-1.67 2 -1.34 2 -1 2 C-0.87625 2.804375 -0.7525 3.60875 -0.625 4.4375 C-0.41875 5.283125 -0.2125 6.12875 0 7 C0.66 7.33 1.32 7.66 2 8 C2 5.69 2 3.38 2 1 C1.34 0.67 0.68 0.34 0 0 Z " fill="#CA3535" transform="translate(113,123)"/>
  <path d="M0 0 C0.99 0.33 1.98 0.66 3 1 C3 3.64 3 6.28 3 9 C1.68 8.67 0.36 8.34 -1 8 C-1.04241723 5.66705225 -1.04092937 3.33297433 -1 1 C-0.67 0.67 -0.34 0.34 0 0 Z " fill="#DDDDDD" transform="translate(132,106)"/>
  <path d="M0 0 C0.99 0.33 1.98 0.66 3 1 C3 3.31 3 5.62 3 8 C1.68 8.33 0.36 8.66 -1 9 C-1.09765625 2.84765625 -1.09765625 2.84765625 -1 1 C-0.67 0.67 -0.34 0.34 0 0 Z " fill="#F4D6D6" transform="translate(144,85)"/>
  <path d="M0 0 C2.0625 0.4375 2.0625 0.4375 4 1 C4 3.31 4 5.62 4 8 C2.33333333 8 0.66666667 8 -1 8 C-1.04241723 5.66705225 -1.04092937 3.33297433 -1 1 C-0.67 0.67 -0.34 0.34 0 0 Z " fill="#E8A9A9" transform="translate(111,123)"/>
  <path d="M0 0 C0.33 0 0.66 0 1 0 C1.33 3.3 1.66 6.6 2 10 C2.66 10 3.32 10 4 10 C4 10.66 4 11.32 4 12 C0.125 11.125 0.125 11.125 -1 10 C-1.0979057 8.50261876 -1.12974864 7.00057108 -1.125 5.5 C-1.12757813 4.6853125 -1.13015625 3.870625 -1.1328125 3.03125 C-1 1 -1 1 0 0 Z " fill="#323232" transform="translate(130,106)"/>
  <path d="M0 0 C2.475 0.495 2.475 0.495 5 1 C4.67 3.31 4.34 5.62 4 8 C3.01 8 2.02 8 1 8 C0.67 5.36 0.34 2.72 0 0 Z " fill="#E6A1A1" transform="translate(130,134)"/>
  <path d="M0 0 C0 3.3 0 6.6 0 10 C-0.66 10 -1.32 10 -2 10 C-2.33 7.69 -2.66 5.38 -3 3 C-3.66 3 -4.32 3 -5 3 C-5 2.34 -5 1.68 -5 1 C-3 0 -3 0 0 0 Z " fill="#484848" transform="translate(151,123)"/>
  <path d="M0 0 C0.66 0 1.32 0 2 0 C2 2.97 2 5.94 2 9 C1.01 9 0.02 9 -1 9 C-1.09765625 2.84765625 -1.09765625 2.84765625 -1 1 C-0.67 0.67 -0.34 0.34 0 0 Z " fill="#F8E7E7" transform="translate(110,85)"/>
  <path d="M0 0 C0.99 0 1.98 0 3 0 C3 3.3 3 6.6 3 10 C2.34 10 1.68 10 1 10 C1 7.69 1 5.38 1 3 C0.34 3 -0.32 3 -1 3 C-0.67 2.01 -0.34 1.02 0 0 Z " fill="#C72A2A" transform="translate(139,134)"/>
  <path d="M0 0 C0.99 0 1.98 0 3 0 C3 2.97 3 5.94 3 9 C2.34 9 1.68 9 1 9 C1 7.02 1 5.04 1 3 C0.01 2.67 -0.98 2.34 -2 2 C-1.34 1.34 -0.68 0.68 0 0 Z " fill="#C82E2E" transform="translate(105,123)"/>
  <path d="M0 0 C0.99 0 1.98 0 3 0 C3 2.97 3 5.94 3 9 C2.34 9 1.68 9 1 9 C1 7.02 1 5.04 1 3 C0.01 2.67 -0.98 2.34 -2 2 C-1.34 1.34 -0.68 0.68 0 0 Z " fill="#CB3838" transform="translate(121,123)"/>
  <path d="M0 0 C0 2.31 0 4.62 0 7 C-0.66 7 -1.32 7 -2 7 C-2 5.68 -2 4.36 -2 3 C-2.66 3 -3.32 3 -4 3 C-4.33 3.99 -4.66 4.98 -5 6 C-5 4.35 -5 2.7 -5 1 C-2 0 -2 0 0 0 Z " fill="#7F7F7F" transform="translate(104,137)"/>
  <path d="M0 0 C0.33 0 0.66 0 1 0 C1.33 1.65 1.66 3.3 2 5 C2.66 5 3.32 5 4 5 C4.66 3.68 5.32 2.36 6 1 C6 2.98 6 4.96 6 7 C4.34385343 7.38218767 2.67542976 7.71395102 1 8 C0 7 0 7 -0.0625 3.4375 C-0.041875 2.303125 -0.02125 1.16875 0 0 Z " fill="#484848" transform="translate(138,125)"/>
  <path d="M0 0 C0.66 0.33 1.32 0.66 2 1 C1.67 1.66 1.34 2.32 1 3 C0.92966231 4.87379605 0.9156978 6.75001102 0.9375 8.625 C0.94652344 9.62789062 0.95554687 10.63078125 0.96484375 11.6640625 C0.97644531 12.43492188 0.98804687 13.20578125 1 14 C0.67 14 0.34 14 0 14 C0 11.03 0 8.06 0 5 C-0.99 5 -1.98 5 -3 5 C-1.125 1.125 -1.125 1.125 0 0 Z " fill="#6F6F6F" transform="translate(121,104)"/>
  <path d="M0 0 C2 1 2 1 3 2 C3.07205511 3.68608966 3.08386068 5.37500659 3.0625 7.0625 C3.05347656 7.98160156 3.04445313 8.90070313 3.03515625 9.84765625 C3.02355469 10.55792969 3.01195313 11.26820312 3 12 C3.66 12.33 4.32 12.66 5 13 C4.01 13 3.02 13 2 13 C1.67 10.03 1.34 7.06 1 4 C0.01 3.67 -0.98 3.34 -2 3 C-1.34 2.01 -0.68 1.02 0 0 Z " fill="#D15050" transform="translate(97,84)"/>
  <path d="M0 0 C0.66 0.33 1.32 0.66 2 1 C-0.97 3.97 -3.94 6.94 -7 10 C-7 6.04435836 -5.59478606 4.89133304 -3 2 C-2.01 1.34 -1.02 0.68 0 0 Z " fill="#CA3636" transform="translate(40,57)"/>
  <path d="M0 0 C1.67542976 0.28604898 3.34385343 0.61781233 5 1 C5 2.98 5 4.96 5 7 C4.34 5.68 3.68 4.36 3 3 C2.34 3 1.68 3 1 3 C0.34 4.32 -0.32 5.64 -1 7 C-1.04254356 5.00045254 -1.04080783 2.99958364 -1 1 C-0.67 0.67 -0.34 0.34 0 0 Z " fill="#C82D2D" transform="translate(146,134)"/>
  <path d="M0 0 C0.66 1.32 1.32 2.64 2 4 C2.66 4 3.32 4 4 4 C4.66 2.68 5.32 1.36 6 0 C6 1.98 6 3.96 6 6 C4.34385343 6.38218767 2.67542976 6.71395102 1 7 C0 6 0 6 -0.0625 2.9375 C-0.041875 1.968125 -0.02125 0.99875 0 0 Z " fill="#CB3838" transform="translate(95,126)"/>
  <path d="M0 0 C3 1 3 1 5 2 C5 3.98 5 5.96 5 8 C5.66 8.33 6.32 8.66 7 9 C6.01 9 5.02 9 4 9 C4 7.02 4 5.04 4 3 C2.68 3.99 1.36 4.98 0 6 C0 4.02 0 2.04 0 0 Z " fill="#E8A7A7" transform="translate(117,124)"/>
  <path d="M0 0 C0.66 0.33 1.32 0.66 2 1 C1.67 1.66 1.34 2.32 1 3 C0.92966231 4.87379605 0.9156978 6.75001102 0.9375 8.625 C0.94652344 9.62789062 0.95554687 10.63078125 0.96484375 11.6640625 C0.97644531 12.43492188 0.98804687 13.20578125 1 14 C0.67 14 0.34 14 0 14 C-0.33 11.03 -0.66 8.06 -1 5 C-1.66 5 -2.32 5 -3 5 C-1.125 1.125 -1.125 1.125 0 0 Z " fill="#696969" transform="translate(110,104)"/>
  <path d="M0 0 C0.66 0.33 1.32 0.66 2 1 C-0.97 3.97 -3.94 6.94 -7 10 C-7 7 -7 7 -4.625 4.4375 C-3.75875 3.633125 -2.8925 2.82875 -2 2 C-1.34 1.34 -0.68 0.68 0 0 Z " fill="#F3D2D2" transform="translate(68,38)"/>
  <path d="M0 0 C1.98 0 3.96 0 6 0 C6.33 0.66 6.66 1.32 7 2 C6.34 2 5.68 2 5 2 C5 4.64 5 7.28 5 10 C4.67 10 4.34 10 4 10 C4 7.36 4 4.72 4 2 C3.01 2.33 2.02 2.66 1 3 C0.67 2.01 0.34 1.02 0 0 Z " fill="#D25252" transform="translate(108,83)"/>
  <path d="M0 0 C1.32 0.33 2.64 0.66 4 1 C4 4.3 4 7.6 4 11 C4.66 11.33 5.32 11.66 6 12 C5.01 12 4.02 12 3 12 C2.67 9.03 2.34 6.06 2 3 C1.34 3 0.68 3 0 3 C0 2.01 0 1.02 0 0 Z " fill="#5F5F5F" transform="translate(96,106)"/>
  <path d="M0 0 C1.98 0 3.96 0 6 0 C5.67 2.97 5.34 5.94 5 9 C4.67 9 4.34 9 4 9 C3.896875 7.88625 3.79375 6.7725 3.6875 5.625 C3.460625 4.42875 3.23375 3.2325 3 2 C2.01 1.34 1.02 0.68 0 0 Z " fill="#C52121" transform="translate(143,84)"/>
</svg>
